<?xml version="1.0" encoding="UTF-8"?><!DOCTYPE svg PUBLIC "-//W3C//DTD SVG 1.1//EN" "http://www.w3.org/Graphics/SVG/1.1/DTD/svg11.dtd"><svg xmlns="http://www.w3.org/2000/svg" xmlns:xlink="http://www.w3.org/1999/xlink" version="1.1" width="16" height="16" viewBox="0 0 16 16"><path fill="#444" d="M12.2 10c-1.1-.1-1.7 1.4-2.5 1.8C8.4 12.5 6 10 6 10S3.5 7.6 4.1 6.3c.5-.8 2-1.4 1.9-2.5-.1-1-2.3-4.6-3.4-3.6C.2 2.4 0 3.3 0 5.1c-.1 3.1 3.9 7 3.9 7 .4.4 3.9 4 7 3.9 1.8 0 2.7-.2 4.9-2.6 1-1.1-2.5-3.3-3.6-3.4z"/><metadata><rdf:RDF xmlns:rdf="http://www.w3.org/1999/02/22-rdf-syntax-ns#" xmlns:rdfs="http://www.w3.org/2000/01/rdf-schema#" xmlns:dc="http://purl.org/dc/elements/1.1/"><rdf:Description about="https://iconscout.com/legal#licenses" dc:title="phone" dc:description="phone" dc:publisher="Iconscout" dc:date="2017-09-19" dc:format="image/svg+xml" dc:language="en"><dc:creator><rdf:Bag><rdf:li>Vaadin Icons</rdf:li></rdf:Bag></dc:creator></rdf:Description></rdf:RDF></metadata></svg>